<?xml version="1.0" encoding="utf-8"?>
<!-- Generator: Adobe Illustrator 19.2.0, SVG Export Plug-In . SVG Version: 6.00 Build 0)  -->
<svg version="1.1" id="Capa_1" xmlns="http://www.w3.org/2000/svg" xmlns:xlink="http://www.w3.org/1999/xlink" x="0px" y="0px"
	 viewBox="0 0 395.4 395.4" style="enable-background:new 0 0 395.4 395.4;" xml:space="preserve">
<style type="text/css">
	.st0{fill:#FFE1B2;}
	.st1{fill:#FFD7A3;}
	.st2{fill:#FDC88E;}
	.st3{fill:#4C8CB6;}
	.st4{fill:#4EA0CA;}
	.st5{fill:#455465;}
	.st6{fill:#DEC5A9;}
	.st7{fill:#7E7E8E;}
	.st8{fill:#545465;}
	.st9{fill:#CCCCCC;}
	.st10{fill:#999999;}
	.st11{fill:#1A1A1A;}
	.st12{fill:#4D4D4D;}
	.st13{fill:#FFDD67;}
	.st14{fill:#EBA352;}
	.st15{fill:none;stroke:#4EA0CA;stroke-miterlimit:10;}
</style>
<g>
	<path class="st0" d="M-1517.9,111.9c10.8-2.5,17.8,2.8,17.8,13.2c0,13.7-14.5,47.3-29.7,26.3
		C-1545,130.4-1517.9,111.9-1517.9,111.9z"/>
</g>
<g>
	<path class="st0" d="M-1694.3,111.9c-9.9-2.5-16.3,2.8-16.3,13.2c0,13.7,13.3,47.3,27.2,26.3
		C-1669.5,130.4-1694.3,111.9-1694.3,111.9z"/>
</g>
<g>
	<path class="st1" d="M-1677.6,241.7c14.7-9.5,13.1-50.8,13.1-57.4h118.4c0,6.6-1.8,47.9,12.9,57.4l-72.1,67.6L-1677.6,241.7z"/>
</g>
<g>
	<path class="st2" d="M-1559.3,256.7l26.1-15c-14.7-9.5-12.9-50.8-12.9-57.4h-118.4C-1656.1,208.7-1599.9,250.7-1559.3,256.7z"/>
</g>
<g>
	<path class="st0" d="M-1513.2,98.8c0,52.7-30.3,118.4-92.1,118.4c-61.8,0-92.1-65.8-92.1-118.4c0-72.4,41.2-98.8,92.1-98.8
		C-1554.4,0-1513.2,26.7-1513.2,98.8z"/>
</g>
<g>
	<path class="st3" d="M-1454,395.4c10.9,0,19.7-8.8,19.7-19.7V311c0-29-22.6-59.9-50.1-68.7l-41.2-13.2c-22.1,16.9-53.8,40-79.8,40
		s-57.6-23.1-79.8-40l-41.2,13.2c-27.6,8.8-50.1,39.7-50.1,68.7v64.7c0,10.9,8.8,19.7,19.7,19.7L-1454,395.4L-1454,395.4z"/>
</g>
<g>
	<path class="st4" d="M-1735.2,395.4h259.6V246c-2.9-1.5-5.8-2.8-8.9-3.7l-41.2-13.2c-22.1,16.9-53.8,40-79.8,40s-57.6-23.1-79.8-40
		l-41.2,13.2c-3,1-6,2.2-8.9,3.7C-1735.2,246-1735.2,395.4-1735.2,395.4z"/>
</g>
<g>
	<path class="st5" d="M-1605.4,269.2l-27.5,27.5c-2.9,2.9-7.6,2.5-10-0.8l-48.1-66.2l15.3-15.3c2.5-2.5,6.5-2.6,9.1-0.2
		L-1605.4,269.2z"/>
</g>
<g>
	<path class="st5" d="M-1605.4,269.2l27.5,27.5c2.9,2.9,7.6,2.5,10-0.8l48.1-66.2l-15.3-15.3c-2.5-2.5-6.5-2.6-9.1-0.2
		L-1605.4,269.2z"/>
</g>
<g>
	<path class="st4" d="M-1726.3,242.3"/>
</g>
<g>
	<path class="st6" d="M-1515.4,79.5c-5.3-6.8-11-13.7-11-13.7v6.6c1.6,59.6-19.7,85.5-19.7,85.5l-27.2,3c-21.3,2.4-42.7,2.4-63.9,0
		l-27.2-3c0,0-21.4-25.9-19.7-85.5v-6.6c0,0-5.7,6.9-11,13.7c-1.4,5.9-2.2,12.2-2.2,19.3c0,52.7,30.3,118.4,92.1,118.4
		c61.8,0,92.1-65.8,92.1-118.4C-1513.2,91.8-1514,85.4-1515.4,79.5z M-1585.6,199.9c-7.3,0-13.2-5.9-13.2-13.2h-13.2
		c0,7.3-5.9,13.2-13.2,13.2c-7.3,0-13.2-5.9-13.2-13.2s5.9-13.2,13.2-13.2h39.5c7.3,0,13.2,5.9,13.2,13.2
		S-1578.3,199.9-1585.6,199.9z"/>
</g>
<g>
	<path class="st7" d="M-1513.4-19.2c-43.5,0-111.4-33.7-138,6.6c-1.8,0-3.5,0-6.7,0c-25.4,0-46.1,20.9-46.1,46.3
		c0,23.6,6.6,78.7,6.6,78.7s14-41.5,39.5-65.8l125,13.2l19.7,52.6C-1502.3,74.9-1506.8-9.7-1513.4-19.2z"/>
</g>
<g>
	<g>
		<path class="st8" d="M-1513.4-19.2c-43.5,0-111.4-33.7-138,6.6c-1.8,0-3.5,0-6.7,0c-18,0-33.6,10.5-41.2,25.6
			c59.5,70.5,152.2,56.6,192.5,46.2C-1505.8,23.7-1509.2-13.1-1513.4-19.2z"/>
	</g>
</g>
<g>
	<g>
		<g>
			<path class="st8" d="M-1620.2,109.2v4.9c0,14.5-11.8,26.3-26.3,26.3h-6.6c-7.3,0-13.2-5.9-13.2-13.2v-18.1L-1620.2,109.2
				 M-1620.2,102.7h-46.1c-3.6,0-6.6,2.9-6.6,6.6v18.1c0,10.9,8.8,19.7,19.7,19.7h6.6c18.2,0,32.9-14.7,32.9-32.9v-4.9
				C-1613.6,105.6-1616.6,102.7-1620.2,102.7L-1620.2,102.7z"/>
		</g>
	</g>
	<g>
		<g>
			<path class="st8" d="M-1544.6,109.2v18.1c0,7.3-5.9,13.2-13.2,13.2h-6.6c-14.5,0-26.3-11.8-26.3-26.3v-4.9L-1544.6,109.2
				 M-1544.6,102.7h-46.1c-3.6,0-6.6,2.9-6.6,6.6v4.9c0,18.2,14.7,32.9,32.9,32.9h6.6c10.9,0,19.7-8.8,19.7-19.7v-18.1
				C-1538.1,105.6-1541,102.7-1544.6,102.7L-1544.6,102.7z"/>
		</g>
	</g>
	<g>
		<g>
			<polygon class="st8" points="-1697.7,102.7 -1666.2,102.7 -1666.2,118.3 -1697.7,110.8 			"/>
		</g>
	</g>
	<g>
		<g>
			<polygon class="st8" points="-1513.2,102.7 -1544.6,102.7 -1544.6,118.3 -1513.2,110.8 			"/>
		</g>
	</g>
	<g>
		<g>
			<path class="st8" d="M-1590.4,118.3h-6.6c0-2.8-3.9-5.3-8.5-5.3c-4.5,0-8.4,2.5-8.4,5.3h-6.6c0-6.7,6.6-11.9,15-11.9
				C-1597.1,106.4-1590.4,111.6-1590.4,118.3z"/>
		</g>
	</g>
</g>
<g>
	
		<ellipse transform="matrix(0.9997 -2.251899e-02 2.251899e-02 0.9997 -2.3785 -37.4219)" class="st8" cx="-1662.8" cy="86.9" rx="3.3" ry="3.3"/>
	
		<ellipse transform="matrix(0.9997 -2.251899e-02 2.251899e-02 0.9997 -2.2507 -36.6756)" class="st8" cx="-1629.6" cy="81.6" rx="4" ry="4"/>
	<path class="st8" d="M-1664.8,84.2c11.2-16.3,33.2-12.4,38-5.5c-2.1,4.5-5.1,4.8-5.7,5.7c-4.2-5.1-16.1-9-27.9,4.7"/>
</g>
<g>
	
		<ellipse transform="matrix(2.251899e-02 -0.9997 0.9997 2.251899e-02 -1602.5493 -1457.8035)" class="st8" cx="-1546.8" cy="90.6" rx="3.3" ry="3.3"/>
	
		<ellipse transform="matrix(2.251899e-02 -0.9997 0.9997 2.251899e-02 -1629.6221 -1496.1394)" class="st8" cx="-1579.9" cy="85.3" rx="4" ry="4"/>
	<path class="st8" d="M-1544.8,88c-11.2-16.3-33.2-12.4-38-5.5c2.1,4.5,5.1,4.8,5.7,5.7c4.2-5.1,16.1-9,27.9,4.7"/>
</g>
<g>
	<circle class="st8" cx="-1650.8" cy="123.9" r="1.8"/>
	<circle class="st8" cx="-1635.6" cy="123.9" r="1.8"/>
	<g>
		<path class="st8" d="M-1652.7,123.9h3.7c0-5.2,11.5-5.2,11.5,0h3.7C-1633.8,114.6-1652.7,114.8-1652.7,123.9z"/>
	</g>
</g>
<g>
	<circle class="st8" cx="-1575.3" cy="123.9" r="1.8"/>
	<circle class="st8" cx="-1560.1" cy="123.9" r="1.8"/>
	<g>
		<path class="st8" d="M-1577.1,123.9h3.7c0-5.2,11.5-5.2,11.5,0h3.7C-1558.2,114.6-1577.1,114.8-1577.1,123.9z"/>
	</g>
</g>
<g>
	<path class="st0" d="M-1753.1,319.9c2,5.5,8.3,8.2,13.9,6.1h0.1c5.6-2.2,8.6-8.4,6.5-13.9l-23.9-64.3c-2-5.5-8.3-8.2-13.9-6.1h-0.1
		c-5.6,2.2-8.6,8.4-6.5,13.9L-1753.1,319.9"/>
	<path class="st2" d="M-1744.6,325.5L-1744.6,325.5c5.7-2.2,8.6-8.4,6.6-13.9l-23.9-64.3c-1.1-3-3.3-5.1-6.2-6.1
		c5.7-0.9,9.9,1.8,11.6,6.6l23.9,64.3c2,5.5-0.8,11.8-6.5,13.9h-0.1c-2.6,1-5.3,1-7.7,0.1C-1746,326-1745.3,325.8-1744.6,325.5"/>
	<g>
		<path class="st0" d="M-1732.6,314.3c0,0-30.5-6-57.3,24.9c0,0-17.2,16.3-9.6,25.4c0,0,15.5,24.7,33.4,33.5
			c26.6,13.1,77.5-15.4,63.1-63.3C-1705.9,325.3-1721.9,305.3-1732.6,314.3"/>
		<path class="st0" d="M-1767.2,333.8c4.1,4.2,11,4.2,15.3,0l0.1-0.1c4.4-4.2,4.6-11,0.5-15.2l-47.9-49.1c-4.1-4.2-11-4.2-15.3,0
			l-0.1,0.1c-4.4,4.2-4.6,11-0.5,15.2L-1767.2,333.8"/>
	</g>
	<path class="st2" d="M-1757.1,335.5L-1757.1,335.5c4.4-4.3,4.6-11.1,0.5-15.3l-47.9-49.1c-2.2-2.3-5.4-3.2-8.4-3
		c4.7-3.1,10.1-2.4,13.7,1.2l47.9,49.1c4.1,4.2,4,11-0.4,15.2l-0.1,0.1c-2,1.9-4.5,3-7,3.1C-1758.3,336.5-1757.7,336-1757.1,335.5"
		/>
	<g>
		<path class="st0" d="M-1806.6,356c-3.8-4.6-3.2-11.5,1.5-15.3l0.1-0.1c4.6-3.8,11.5-3.2,15.4,1.4l10.7,12.9
			c3.8,4.6,3.2,11.5-1.5,15.3l-0.1,0.1c-4.7,3.8-11.5,3.2-15.4-1.4L-1806.6,356"/>
		<path class="st0" d="M-1796,334.7c-3.8-4.6-3.2-11.5,1.5-15.3l0.1-0.1c4.6-3.8,11.5-3.2,15.4,1.4l10.7,12.9
			c3.8,4.6,3.2,11.5-1.5,15.3l-0.1,0.1c-4.6,3.8-11.5,3.2-15.4-1.4L-1796,334.7"/>
	</g>
	<g>
		<path class="st2" d="M-1785.5,369.2l0.1-0.1c4.6-3.8,5.2-10.5,1.4-15.1l-10.7-12.9c-1-1.2-2.8-2.3-4.2-2.9c4.1-0.5,7.1,1.3,9.3,4
			l10.7,12.9c3.8,4.6,3.2,11.2-1.4,15.1l-0.1,0.1c-3.4,2.8-8,3.3-11.7,1.5C-1789.7,371.6-1787.4,370.8-1785.5,369.2"/>
		<path class="st2" d="M-1774.9,347.9l0.1-0.1c4.6-3.8,5.3-10.5,1.5-15.1l-10.7-12.9c-1-1.2-2.9-2.3-4.2-3c4.1-0.4,7.1,1.3,9.4,4
			l10.7,12.9c3.8,4.6,3.1,11.2-1.5,15.1l-0.1,0.1c-3.4,2.8-8,3.3-11.7,1.5C-1779.2,350.3-1776.9,349.5-1774.9,347.9"/>
		<path class="st2" d="M-1731.8,333.2c-13.5,1.8-31,25.6-12.3,43.9C-1758.8,354.9-1741.3,338-1731.8,333.2"/>
		<path class="st2" d="M-1750.3,313.8c-10.2,0.5-7.1,8.4-19.4,17c-5.4,3.8-0.3,16.7,10.7,15.3c15.3-1.9,10.8-10.6,15.7-9.3
			c5.2,1.4,8.4,0.2,13.5,2.4c3.7,1.6,15.1-12.2,12.8-19C-1721.3,307.2-1734,313-1750.3,313.8"/>
	</g>
	<path class="st0" d="M-1748,315.1c-10.6,0.5-7.4,8.7-20.1,17.7c-5.6,3.9-0.3,17.4,11.1,15.9c15.9-2,11.3-11,16.4-9.7
		c5.4,1.4,8.8,0.2,14.1,2.5c3.8,1.7,6.1,16.1,6.1,16.1s21.5,0.6,20.6-7.3c-1.7-14.6-9-22.2-13.5-28.6
		C-1723.5,307.2-1731.1,314.3-1748,315.1"/>
	<g>
		<path class="st2" d="M-1728.4,312.7c10.6-1.7,24.3,19.7,24.9,33.9c1.7,35.3-31.7,56.9-56.3,53.7c24.9,5.9,61.1-15.9,60.1-53.1
			C-1700.1,332.4-1714,307-1728.4,312.7"/>
		<path class="st2" d="M-1728.1,342.9c1.2,0.5,2.2,2.2,3.1,4.4c-1-3.5-2.5-6.9-4.2-7.6c-5.3-2.3-7.3-2.1-12.7-3.6
			c-5.1-1.3-0.5,7.7-16.4,9.7c-5.9,0.7-10.1-2.5-12.1-6.3c0.9,5,5.7,10.4,13.2,9.5c15.9-2,11.3-11,16.4-9.7
			C-1735.4,340.8-1733.3,340.6-1728.1,342.9"/>
	</g>
</g>
<g>
	<path class="st0" d="M-942.3,111.9c10.8-2.5,17.8,2.8,17.8,13.2c0,13.7-14.5,47.3-29.7,26.3S-942.3,111.9-942.3,111.9z"/>
</g>
<g>
	<path class="st0" d="M-1118.7,111.9c-9.9-2.5-16.3,2.8-16.3,13.2c0,13.7,13.3,47.3,27.2,26.3S-1118.7,111.9-1118.7,111.9z"/>
</g>
<g>
	<path class="st1" d="M-1102.1,241.7c14.7-9.5,13.1-50.8,13.1-57.4h118.4c0,6.6-1.8,47.9,12.9,57.4l-72.1,67.6L-1102.1,241.7z"/>
</g>
<g>
	<path class="st2" d="M-983.7,256.7l26.1-15c-14.7-9.5-12.9-50.8-12.9-57.4H-1089C-1080.5,208.7-1024.3,250.7-983.7,256.7z"/>
</g>
<g>
	<path class="st0" d="M-937.7,98.8c0,52.7-30.3,118.4-92.1,118.4s-92.1-65.8-92.1-118.4c0-72.4,41.2-98.8,92.1-98.8
		C-978.9,0-937.7,26.7-937.7,98.8z"/>
</g>
<g>
	<path class="st3" d="M-878.4,395.4c10.9,0,19.7-8.8,19.7-19.7V311c0-29-22.6-59.9-50.1-68.7l-41.2-13.2c-22.1,16.9-53.8,40-79.8,40
		s-57.6-23.1-79.8-40l-41.2,13.2c-27.5,8.8-50.1,39.7-50.1,68.7v64.7c0,10.9,8.8,19.7,19.7,19.7L-878.4,395.4L-878.4,395.4z"/>
</g>
<g>
	<path class="st4" d="M-1159.6,395.4H-900V246c-2.9-1.5-5.8-2.8-8.9-3.7l-41.2-13.2c-22.1,16.9-53.8,40-79.8,40
		c-26,0-57.6-23.1-79.8-40l-41.2,13.2c-3,1-6,2.2-8.9,3.7C-1159.6,246-1159.6,395.4-1159.6,395.4z"/>
</g>
<g>
	<path class="st5" d="M-1029.8,269.2l-27.5,27.5c-2.9,2.9-7.6,2.5-10-0.8l-48.1-66.2l15.3-15.3c2.5-2.5,6.5-2.6,9.1-0.2
		L-1029.8,269.2z"/>
</g>
<g>
	<path class="st5" d="M-1029.8,269.2l27.5,27.5c2.9,2.9,7.6,2.5,10-0.8l48.1-66.2l-15.3-15.3c-2.5-2.5-6.5-2.6-9.1-0.2
		L-1029.8,269.2z"/>
</g>
<g>
	<path class="st4" d="M-1150.7,242.3"/>
</g>
<g>
	<path class="st6" d="M-939.8,79.5c-5.3-6.8-11-13.7-11-13.7v6.6c1.6,59.6-19.7,85.5-19.7,85.5l-27.2,3c-21.3,2.4-42.7,2.4-63.9,0
		l-27.2-3c0,0-21.4-25.9-19.7-85.5v-6.6c0,0-5.7,6.9-11,13.7c-1.4,5.9-2.2,12.2-2.2,19.3c0,52.7,30.3,118.4,92.1,118.4
		s92.1-65.8,92.1-118.4C-937.7,91.8-938.4,85.4-939.8,79.5z M-1010,199.9c-7.3,0-13.2-5.9-13.2-13.2h-13.2c0,7.3-5.9,13.2-13.2,13.2
		c-7.3,0-13.2-5.9-13.2-13.2s5.9-13.2,13.2-13.2h39.5c7.3,0,13.2,5.9,13.2,13.2S-1002.8,199.9-1010,199.9z"/>
</g>
<g>
	<path class="st7" d="M-937.8-19.2c-43.5,0-111.4-33.7-138,6.6c-1.8,0-3.5,0-6.7,0c-25.4,0-46.1,20.9-46.1,46.3
		c0,23.6,6.6,78.7,6.6,78.7s14-41.5,39.5-65.8l125,13.2l19.7,52.6C-926.7,74.9-931.2-9.7-937.8-19.2z"/>
</g>
<g>
	<g>
		<path class="st8" d="M-937.8-19.2c-43.5,0-111.4-33.7-138,6.6c-1.8,0-3.5,0-6.7,0c-18,0-33.6,10.5-41.2,25.6
			c59.4,70.5,152.2,56.6,192.4,46.2C-930.3,23.7-933.6-13.1-937.8-19.2z"/>
	</g>
</g>
<g>
	<g>
		<g>
			<path class="st8" d="M-1044.6,109.2v4.9c0,14.5-11.8,26.3-26.3,26.3h-6.6c-7.3,0-13.2-5.9-13.2-13.2v-18.1L-1044.6,109.2
				 M-1044.6,102.7h-46.1c-3.6,0-6.6,2.9-6.6,6.6v18.1c0,10.9,8.8,19.7,19.7,19.7h6.6c18.2,0,32.9-14.7,32.9-32.9v-4.9
				C-1038,105.6-1041,102.7-1044.6,102.7L-1044.6,102.7z"/>
		</g>
	</g>
	<g>
		<g>
			<path class="st8" d="M-969.1,109.2v18.1c0,7.3-5.9,13.2-13.2,13.2h-6.6c-14.5,0-26.3-11.8-26.3-26.3v-4.9L-969.1,109.2
				 M-969.1,102.7h-46.1c-3.6,0-6.6,2.9-6.6,6.6v4.9c0,18.2,14.7,32.9,32.9,32.9h6.6c10.9,0,19.7-8.8,19.7-19.7v-18.1
				C-962.5,105.6-965.4,102.7-969.1,102.7L-969.1,102.7z"/>
		</g>
	</g>
	<g>
		<g>
			<polygon class="st8" points="-1122.1,102.7 -1090.7,102.7 -1090.7,118.3 -1122.1,110.8 			"/>
		</g>
	</g>
	<g>
		<g>
			<polygon class="st8" points="-937.7,102.7 -969.1,102.7 -969.1,118.3 -937.7,110.8 			"/>
		</g>
	</g>
	<g>
		<g>
			<path class="st8" d="M-1014.8,118.3h-6.6c0-2.8-3.9-5.3-8.4-5.3s-8.4,2.5-8.4,5.3h-6.6c0-6.7,6.6-11.9,15-11.9
				C-1021.4,106.4-1014.8,111.6-1014.8,118.3z"/>
		</g>
	</g>
</g>
<g>
	
		<ellipse transform="matrix(0.9997 -2.251899e-02 2.251899e-02 0.9997 -2.2325 -24.4616)" class="st8" cx="-1087.2" cy="86.9" rx="3.3" ry="3.3"/>
	
		<ellipse transform="matrix(0.9997 -2.251899e-02 2.251899e-02 0.9997 -2.1048 -23.7153)" class="st8" cx="-1054" cy="81.6" rx="4" ry="4"/>
	<path class="st8" d="M-1089.2,84.2c11.2-16.3,33.2-12.4,38-5.5c-2.1,4.5-5.1,4.8-5.7,5.7c-4.2-5.1-16.1-9-27.9,4.7"/>
</g>
<g>
	
		<ellipse transform="matrix(2.251899e-02 -0.9997 0.9997 2.251899e-02 -1039.9833 -882.4241)" class="st8" cx="-971.3" cy="90.6" rx="3.3" ry="3.3"/>
	
		<ellipse transform="matrix(2.251899e-02 -0.9997 0.9997 2.251899e-02 -1067.0562 -920.7601)" class="st8" cx="-1004.4" cy="85.3" rx="4" ry="4"/>
	<path class="st8" d="M-969.2,88c-11.2-16.3-33.2-12.4-38-5.5c2.1,4.5,5.1,4.8,5.7,5.7c4.2-5.1,16.1-9,27.9,4.7"/>
</g>
<g>
	<circle class="st8" cx="-1075.2" cy="123.9" r="1.8"/>
	<circle class="st8" cx="-1060" cy="123.9" r="1.8"/>
	<g>
		<path class="st8" d="M-1077.1,123.9h3.7c0-5.2,11.5-5.2,11.5,0h3.7C-1058.2,114.6-1077.1,114.8-1077.1,123.9z"/>
	</g>
</g>
<g>
	<circle class="st8" cx="-999.7" cy="123.9" r="1.8"/>
	<circle class="st8" cx="-984.5" cy="123.9" r="1.8"/>
	<g>
		<path class="st8" d="M-1001.5,123.9h3.7c0-5.2,11.5-5.2,11.5,0h3.7C-982.7,114.6-1001.5,114.8-1001.5,123.9z"/>
	</g>
</g>
<path class="st8" d="M-1019.7,175.9c0,3.6-4.6,6.4-10.4,6.4c-5.8,0-10.4-2.9-10.4-6.4"/>
<path class="st8" d="M-1595,175.9c0,3.6-4.6,6.4-10.4,6.4c-5.8,0-10.4-2.9-10.4-6.4"/>
<g>
	<path class="st9" d="M-1133,310.5l-24.5-9.6v-1c0-10.3,8.3-18.6,18.6-18.6h6v29.2H-1133z"/>
	<path class="st9" d="M-897.3,402.4l-24.6-9.6V281.3h6c10.3,0,18.6,8.3,18.6,18.6V402.4z"/>
	<path class="st10" d="M-915.9,481.8h-6v-88.9l24.6,9.6v60.8C-897.3,473.4-905.6,481.8-915.9,481.8z"/>
	<path class="st10" d="M-1133,481.8h-6c-10.3,0-18.6-8.3-18.6-18.6V300.9l24.6,9.6V481.8z"/>
	<polyline class="st11" points="-1133,481.8 -1133,310.5 -921.9,392.8 -921.9,481.8 	"/>
	<polygon class="st12" points="-921.9,392.8 -1133,310.5 -1133,281.3 -921.9,281.3 	"/>
</g>
<path class="st13" d="M-829.6,218.6c0.1,0,0.1-0.1,0.2-0.1C-829.5,218.6-829.5,218.6-829.6,218.6z"/>
<path class="st14" d="M-829.4,218.5c0.1,0,0.1-0.1,0.2-0.1C-829.3,218.5-829.3,218.5-829.4,218.5z"/>
<g>
	<path class="st13" d="M-1140.3,366.4c0.1,0,0.2-0.1,0.3-0.1C-1140.1,366.3-1140.2,366.4-1140.3,366.4z"/>
	<path class="st14" d="M-1140,366.3c0.7-0.2,1.3-0.4,2-0.7C-1138.7,365.9-1139.3,366.1-1140,366.3z"/>
	<path class="st14" d="M-1142.9,366.7c0.9,0,1.8-0.1,2.6-0.3C-1141.1,366.6-1142,366.7-1142.9,366.7l-3.3,0l0,0H-1142.9z"/>
	<path class="st13" d="M-1139.6,420.8c0.3-0.1,0.6-0.2,0.9-0.3C-1139,420.6-1139.3,420.7-1139.6,420.8z"/>
	<path class="st14" d="M-1141.6,421c0.7,0,1.4-0.1,2-0.2C-1140.2,420.9-1140.9,421-1141.6,421z"/>
	<path class="st14" d="M-1138.7,420.6c0.5-0.1,1-0.3,1.4-0.5C-1137.8,420.3-1138.2,420.4-1138.7,420.6z"/>
	<path class="st13" d="M-1143.4,425.8c-0.2-0.3-0.5-0.7-0.8-1C-1143.9,425.2-1143.6,425.5-1143.4,425.8z"/>
	<path class="st13" d="M-1140.6,435.1c0-0.2,0-0.5,0-0.7C-1140.6,434.6-1140.6,434.8-1140.6,435.1z"/>
	<path class="st13" d="M-1140.9,437.4c0-0.2,0.1-0.5,0.1-0.7C-1140.8,437-1140.8,437.2-1140.9,437.4z"/>
	<path class="st13" d="M-1140.8,432.6c0-0.2,0-0.4-0.1-0.6C-1140.8,432.2-1140.8,432.4-1140.8,432.6z"/>
	<path class="st13" d="M-1141.5,439.7c0.1-0.2,0.1-0.4,0.2-0.5C-1141.4,439.4-1141.4,439.5-1141.5,439.7z"/>
	<path class="st13" d="M-1141.3,429.8c-0.1-0.3-0.2-0.6-0.4-0.9C-1141.6,429.2-1141.4,429.5-1141.3,429.8z"/>
	<path class="st13" d="M-1144.8,424.2c-0.3-0.3-0.6-0.6-1-0.8C-1145.5,423.6-1145.2,423.9-1144.8,424.2z"/>
	<path class="st13" d="M-1142.2,427.7c-0.2-0.3-0.4-0.7-0.6-1C-1142.6,427-1142.4,427.4-1142.2,427.7z"/>
	<path class="st13" d="M-1145.9,445.9c0.2-0.1,0.4-0.3,0.6-0.4C-1145.5,445.6-1145.7,445.7-1145.9,445.9z"/>
	<path class="st13" d="M-1144,444.1c0.1-0.1,0.2-0.2,0.3-0.3C-1143.8,443.9-1143.9,444-1144,444.1z"/>
	<path class="st14" d="M-1144.1,424.9c-0.2-0.2-0.5-0.5-0.7-0.7C-1144.6,424.4-1144.4,424.6-1144.1,424.9z"/>
	<path class="st14" d="M-1140.6,434.3c0-0.6-0.1-1.2-0.1-1.8C-1140.7,433.2-1140.6,433.7-1140.6,434.3z"/>
	<path class="st14" d="M-1140.8,436.7c0.1-0.6,0.1-1.1,0.1-1.7C-1140.7,435.6-1140.7,436.2-1140.8,436.7z"/>
	<path class="st14" d="M-1140.8,432c-0.1-0.7-0.3-1.5-0.5-2.2C-1141.1,430.5-1140.9,431.2-1140.8,432z"/>
	<path class="st14" d="M-1145.9,423.3C-1145.9,423.3-1145.8,423.3-1145.9,423.3C-1145.8,423.3-1145.9,423.3-1145.9,423.3
		C-1145.9,423.3-1145.9,423.3-1145.9,423.3z"/>
	<path class="st14" d="M-1141.7,428.9c-0.2-0.4-0.3-0.8-0.5-1.1C-1142,428.1-1141.9,428.5-1141.7,428.9z"/>
	<path class="st14" d="M-1141.3,439.2c0.2-0.6,0.3-1.1,0.4-1.7C-1141,438-1141.1,438.6-1141.3,439.2z"/>
	<path class="st14" d="M-1142.8,426.7c-0.2-0.3-0.4-0.6-0.6-0.9C-1143.2,426.1-1143,426.4-1142.8,426.7z"/>
	<path class="st14" d="M-1141.5,439.7c-0.5,1.4-1.1,2.7-2,3.8h0C-1142.6,442.4-1141.9,441.1-1141.5,439.7z"/>
	<path class="st14" d="M-1145.3,445.4c0.5-0.4,0.9-0.8,1.3-1.3C-1144.4,444.6-1144.8,445-1145.3,445.4z"/>
	<path class="st14" d="M-1143.5,443.5c-0.1,0.1-0.2,0.2-0.2,0.3C-1143.6,443.7-1143.6,443.6-1143.5,443.5L-1143.5,443.5z"/>
	<g>
		<path class="st0" d="M-1197.3,360c0.2,0.5,0.4,0.9,0.7,1.3C-1196.9,360.9-1197.1,360.4-1197.3,360z"/>
		<path class="st0" d="M-1197.3,360C-1197.3,360-1197.3,360-1197.3,360C-1197.3,360-1197.3,360-1197.3,360
			C-1197.3,360-1197.3,360-1197.3,360z"/>
		<path class="st0" d="M-1136.2,341.8c-1.8-1.4-4-2.3-6.7-2.3h0h-44.3c-10.4,0-13.8,12.4-10.1,20.4c1.8,1.4,4,2.2,6.7,2.2h44.3
			c0.2,0,0.5,0,0.7-0.1C-1135.8,361.6-1132.7,349.7-1136.2,341.8z"/>
	</g>
	<path class="st14" d="M-1146.2,366.7L-1146.2,366.7l-41,0c-0.9,0-1.7-0.1-2.5-0.3c0.8,0.2,1.6,0.3,2.5,0.3H-1146.2z"/>
	<path class="st2" d="M-1131.5,350.9c0-0.1,0-0.3,0-0.4c-0.1-0.7-0.3-1.5-0.5-2.2c-0.1-0.3-0.2-0.6-0.3-1c-0.1-0.4-0.3-0.7-0.4-1.1
		c-0.2-0.4-0.4-0.7-0.6-1.1c-0.1-0.3-0.3-0.5-0.5-0.8c-0.3-0.4-0.5-0.7-0.8-1.1c-0.2-0.2-0.3-0.3-0.5-0.5c-0.3-0.4-0.7-0.7-1.1-1
		c0,0,0,0,0,0c3.6,7.8,0.4,19.8-9.4,20.3c-0.2,0-0.5,0.1-0.7,0.1h-44.3c-2.7,0-4.9-0.9-6.7-2.2c0.2,0.5,0.5,0.9,0.7,1.4
		c0,0,0,0.1,0,0.1c0.4,0.7,1,1.4,1.5,2c0.1,0.2,0.3,0.3,0.4,0.5c0.2,0.2,0.5,0.4,0.8,0.7c0.4,0.3,0.7,0.5,1.1,0.8
		c0.2,0.1,0.3,0.2,0.5,0.3c0.6,0.3,1.3,0.5,2,0.7c0.2,0,0.3,0.1,0.5,0.1c0.8,0.2,1.6,0.3,2.5,0.3h41h3.3c0.9,0,1.8-0.1,2.6-0.3
		c0.1,0,0.2-0.1,0.3-0.1c0.7-0.2,1.3-0.4,2-0.7c0.1-0.1,0.2-0.1,0.4-0.2c0.6-0.3,1.1-0.7,1.7-1.1c0.1-0.1,0.1-0.1,0.2-0.2
		c1.8-1.5,3-3.6,3.7-5.9c0-0.1,0-0.1,0.1-0.2c0.2-0.7,0.4-1.4,0.5-2.1c0-0.1,0-0.3,0.1-0.4c0.1-0.6,0.1-1.3,0.1-1.9
		c0-0.2,0-0.4,0-0.5C-1131.4,352.3-1131.4,351.6-1131.5,350.9z"/>
	<g>
		<path class="st0" d="M-1204,387.5c0-0.1-0.1-0.2-0.1-0.2c0,0,0,0,0,0C-1204.1,387.3-1204,387.4-1204,387.5z"/>
		<path class="st0" d="M-1204,387.5c0.2,0.3,0.4,0.6,0.6,0.9C-1203.6,388.1-1203.8,387.8-1204,387.5z"/>
		<path class="st0" d="M-1130.8,369.1C-1130.8,369.1-1130.8,369.1-1130.8,369.1c0.2,0.2,0.4,0.3,0.6,0.4
			C-1130.4,369.4-1130.6,369.2-1130.8,369.1z"/>
		<path class="st0" d="M-1130.2,369.5c0.3,0.2,0.6,0.5,0.9,0.7C-1129.6,370-1129.9,369.7-1130.2,369.5z"/>
		<path class="st0" d="M-1130.8,369.1c-2.1-1.4-4.8-2.3-8.1-2.3h-7.4h-45.8c-12.5,0-16.5,12.4-12.1,20.4c2.1,1.4,4.8,2.2,8,2.2h47.1
			h6C-1130.5,389.5-1126.5,377.2-1130.8,369.1z"/>
		<path class="st0" d="M-1130.3,369.5C-1130.3,369.5-1130.2,369.5-1130.3,369.5C-1130.2,369.5-1130.3,369.5-1130.3,369.5z"/>
	</g>
	<path class="st14" d="M-1195,393.7c0.9,0.2,1.9,0.3,3,0.3h0h0h42.5l0,0h-37.5c0,0,0,0,0,0h-4.9C-1193,394-1194,393.8-1195,393.7z"
		/>
	<path class="st14" d="M-1135.7,393.6c-1,0.2-2,0.3-3.1,0.3h-3.2c0,0,0,0,0,0h-7.4l0,0h10.7
		C-1137.7,393.9-1136.7,393.8-1135.7,393.6z"/>
	<path class="st2" d="M-1125.1,378.3c0-0.2,0-0.4-0.1-0.6c-0.1-0.7-0.3-1.4-0.6-2.1c-0.1-0.4-0.3-0.8-0.5-1.2
		c-0.1-0.3-0.2-0.5-0.4-0.8c-0.2-0.4-0.5-0.9-0.8-1.3c-0.1-0.2-0.3-0.4-0.4-0.5c-0.3-0.4-0.7-0.8-1.1-1.2c-0.1-0.1-0.2-0.2-0.3-0.3
		c-0.5-0.4-0.9-0.8-1.5-1.2c4.4,8,0.3,20.4-12.2,20.4h-6h-47.1c-3.3,0-5.9-0.9-8-2.2c0.2,0.4,0.5,0.8,0.7,1.2
		c0.1,0.2,0.2,0.3,0.4,0.5c0.3,0.4,0.7,0.9,1.1,1.2c0.4,0.4,0.7,0.7,1.1,1c0.2,0.2,0.5,0.3,0.7,0.5c0.5,0.3,1.1,0.7,1.7,0.9
		c0.1,0.1,0.2,0.1,0.4,0.2c0.8,0.3,1.6,0.6,2.5,0.8c0.2,0,0.3,0.1,0.5,0.1c0.9,0.2,1.9,0.3,3,0.3h42.5h10.7c1.1,0,2.2-0.1,3.2-0.3
		c0.1,0,0.2-0.1,0.3-0.1c0.8-0.2,1.6-0.4,2.4-0.7c0.1-0.1,0.3-0.1,0.4-0.2c0.7-0.3,1.4-0.7,2-1.1c0.1-0.1,0.2-0.1,0.3-0.2
		c2.1-1.5,3.6-3.6,4.4-5.9c0-0.1,0-0.2,0.1-0.2c0.2-0.7,0.4-1.4,0.5-2c0-0.2,0.1-0.3,0.1-0.5c0.1-0.6,0.1-1.2,0.2-1.9
		c0-0.2,0-0.4,0-0.6C-1125,379.6-1125.1,378.9-1125.1,378.3z"/>
	<path class="st13" d="M-1142.1,421.1c0.2,0,0.3,0,0.5,0C-1141.8,421-1141.9,421.1-1142.1,421.1l-10.5,0c0,0-0.1,0-0.1,0H-1142.1z"
		/>
	<g>
		<path class="st0" d="M-1194.7,418.1c0.3,0.3,0.7,0.6,1.1,0.9C-1193.9,418.7-1194.3,418.4-1194.7,418.1z"/>
		<path class="st0" d="M-1194.7,418.1C-1194.7,418-1194.7,418-1194.7,418.1C-1194.7,418-1194.7,418-1194.7,418.1z"/>
		<path class="st0" d="M-1135.3,396.2c-1.8-1.4-4-2.3-6.8-2.3h-7.4h-37.5c-12.4,0-14.9,16.9-7.7,24c-1.1-1-1.9-2.3-2.5-3.7
			c1.8,1.4,4,2.3,6.8,2.3h38.2h6.7C-1135,416.6-1131.6,404.3-1135.3,396.2z"/>
	</g>
	<path class="st13" d="M-1142.1,394h-7.4l0,0L-1142.1,394C-1142.1,394-1142.1,394-1142.1,394z"/>
	<path class="st2" d="M-1130.5,405.7c0-0.3,0-0.6-0.1-0.9c-0.1-0.7-0.3-1.4-0.5-2.1c-0.1-0.4-0.3-0.7-0.4-1.1
		c-0.1-0.3-0.3-0.7-0.4-1c-0.2-0.4-0.4-0.7-0.6-1.1c-0.2-0.3-0.3-0.6-0.5-0.8c-0.2-0.3-0.5-0.7-0.7-1c-0.2-0.2-0.4-0.5-0.7-0.7
		c-0.3-0.3-0.6-0.6-0.9-0.8c0,0-0.1,0-0.1-0.1c3.7,8,0.3,20.3-10.3,20.3h-6.7h-38.2c-2.8,0-5-0.9-6.8-2.3c0.9,1.9,2.1,3.5,3.7,4.7
		c0.2,0.1,0.4,0.3,0.6,0.4c0.4,0.3,0.9,0.5,1.3,0.7c0.4,0.2,0.9,0.4,1.4,0.5c0.3,0.1,0.6,0.1,0.9,0.2c0.6,0.1,1.3,0.2,1.9,0.2
		c0.1,0,0.2,0,0.4,0h4.3c0.2,0,0.3-0.1,0.5-0.1h29c0.1,0,0.2,0,0.4,0c0,0,0.1,0,0.1,0h10.6c0.2,0,0.3,0,0.5,0c0.7,0,1.4-0.1,2-0.2
		c0.3-0.1,0.6-0.2,0.9-0.3c0.5-0.1,1-0.3,1.4-0.5c0.3-0.1,0.5-0.3,0.8-0.4c0.4-0.2,0.8-0.5,1.2-0.8c0.2-0.2,0.4-0.3,0.6-0.5
		c0.4-0.4,0.8-0.8,1.2-1.2c0.1-0.1,0.2-0.2,0.3-0.4c0.5-0.6,0.9-1.3,1.2-1.9c0-0.1,0-0.1,0.1-0.2c0.3-0.6,0.6-1.3,0.8-1.9
		c0.1-0.2,0.1-0.5,0.2-0.7c0.1-0.5,0.3-1,0.4-1.6c0-0.3,0.1-0.6,0.1-0.8c0.1-0.5,0.1-1,0.1-1.5c0-0.3,0-0.6,0-0.9
		C-1130.4,406.7-1130.4,406.2-1130.5,405.7z"/>
	<g>
		<polygon class="st0" points="-1193.2,441.4 -1193.2,441.4 -1193.2,441.4 		"/>
		<path class="st0" d="M-1193.2,441.4c0.2,0.5,0.5,0.9,0.8,1.4C-1192.7,442.3-1192.9,441.9-1193.2,441.4z"/>
		<path class="st0" d="M-1145.9,423.3c-1.8-1.3-4-2.1-6.6-2.2h-0.3h-30c-10.8,0.5-14.2,12.4-10.3,20.3c1.9,1.4,4.3,2.3,7.2,2.3h29
			c0.3,0,0.6,0,0.8-0.1v0h0.5h0C-1145.3,442.6-1142.1,431-1145.9,423.3z"/>
	</g>
	<path class="st13" d="M-1156.1,443.6L-1156.1,443.6l0.5,0v0C-1155.7,443.6-1155.9,443.6-1156.1,443.6z"/>
	<path class="st13" d="M-1150.5,447.9c0.3-0.1,0.6-0.2,0.9-0.2C-1149.9,447.7-1150.2,447.8-1150.5,447.9z"/>
	<polygon class="st13" points="-1155.5,443.5 -1155.5,443.5 -1155.5,443.5 	"/>
	<path class="st13" d="M-1148,447.1c0.3-0.1,0.5-0.2,0.8-0.4C-1147.5,446.9-1147.8,447-1148,447.1z"/>
	<path class="st13" d="M-1152.8,421.1L-1152.8,421.1l-30,0c0,0,0.1,0,0.1,0H-1152.8z"/>
	<path class="st13" d="M-1152.5,421.1h-0.3l0,0h0.1C-1152.6,421.1-1152.6,421.1-1152.5,421.1z"/>
	<path class="st13" d="M-1182.7,421.1c0.2,0,0.3-0.1,0.5-0.1h29c0.1,0,0.2,0,0.4,0l0,0H-1182.7z"/>
	<path class="st13" d="M-1152.8,421.1L-1152.8,421.1c0,0,0.1,0,0.1,0H-1152.8z"/>
	<path class="st14" d="M-1149.6,447.6c0.5-0.1,1.1-0.3,1.6-0.5C-1148.5,447.3-1149.1,447.5-1149.6,447.6z"/>
	<path class="st14" d="M-1147.3,446.7c0.5-0.3,0.9-0.5,1.4-0.8C-1146.3,446.2-1146.8,446.5-1147.3,446.7z"/>
	<path class="st2" d="M-1140.8,432.6c0-0.2,0-0.4-0.1-0.6c-0.1-0.7-0.3-1.5-0.5-2.2c-0.1-0.3-0.2-0.6-0.4-0.9
		c-0.2-0.4-0.3-0.8-0.5-1.1c-0.2-0.3-0.4-0.7-0.6-1c-0.2-0.3-0.4-0.6-0.6-0.9c-0.2-0.3-0.5-0.7-0.8-1c-0.2-0.2-0.5-0.5-0.7-0.7
		c-0.3-0.3-0.6-0.6-1-0.8c0,0-0.1,0-0.1,0c3.8,7.7,0.6,19.3-9.6,20.2c0,0,0,0,0,0c-0.2,0-0.4,0-0.5,0c-0.3,0-0.5,0.1-0.8,0.1h-29
		c-2.9,0-5.3-0.9-7.2-2.3c0.2,0.5,0.5,0.9,0.8,1.4c0,0,0,0,0,0c0.6,0.8,1.2,1.6,2,2.3c0.1,0,0.1,0.1,0.2,0.2c0.3,0.3,0.7,0.5,1,0.8
		c0.3,0.2,0.6,0.4,0.9,0.5c0.4,0.2,0.7,0.4,1.1,0.6c0.5,0.2,1.1,0.4,1.7,0.6c0.3,0.1,0.6,0.1,0.9,0.2c0.7,0.1,1.4,0.2,2.2,0.2
		c0.1,0,0.2,0,0.3,0h26.1h2.9c0.1,0,0.1,0,0.1,0c0.1,0,0.2,0,0.3,0c0.8,0,1.6-0.1,2.3-0.2c0.3-0.1,0.6-0.2,0.9-0.2
		c0.5-0.1,1.1-0.3,1.6-0.5c0.3-0.1,0.5-0.2,0.8-0.4c0.5-0.3,0.9-0.5,1.4-0.8c0.2-0.1,0.4-0.3,0.6-0.4c0.5-0.4,0.9-0.8,1.3-1.3
		c0.1-0.1,0.2-0.2,0.3-0.3c0.1-0.1,0.1-0.2,0.2-0.3c0.9-1.1,1.6-2.4,2-3.8c0.1-0.2,0.1-0.4,0.2-0.5c0.2-0.6,0.3-1.1,0.4-1.7
		c0-0.2,0.1-0.5,0.1-0.7c0.1-0.6,0.1-1.1,0.1-1.7c0-0.2,0-0.5,0-0.7C-1140.6,433.7-1140.7,433.1-1140.8,432.6z"/>
</g>
<g>
	<path class="st13" d="M-911.7,366.4c-0.1,0-0.2-0.1-0.3-0.1C-911.9,366.3-911.8,366.4-911.7,366.4z"/>
	<path class="st14" d="M-912,366.3c-0.7-0.2-1.3-0.4-2-0.7C-913.4,365.9-912.7,366.1-912,366.3z"/>
	<path class="st14" d="M-909.1,366.7c-0.9,0-1.8-0.1-2.6-0.3C-910.9,366.6-910.1,366.7-909.1,366.7l3.3,0l0,0H-909.1z"/>
	<path class="st13" d="M-912.5,420.8c-0.3-0.1-0.6-0.2-0.9-0.3C-913,420.6-912.8,420.7-912.5,420.8z"/>
	<path class="st14" d="M-910.5,421c-0.7,0-1.4-0.1-2-0.2C-911.8,420.9-911.2,421-910.5,421z"/>
	<path class="st14" d="M-913.3,420.6c-0.5-0.1-1-0.3-1.4-0.5C-914.3,420.3-913.8,420.4-913.3,420.6z"/>
	<path class="st13" d="M-908.7,425.8c0.2-0.3,0.5-0.7,0.8-1C-908.2,425.2-908.4,425.5-908.7,425.8z"/>
	<path class="st13" d="M-911.4,435.1c0-0.2,0-0.5,0-0.7C-911.4,434.6-911.4,434.8-911.4,435.1z"/>
	<path class="st13" d="M-911.2,437.4c0-0.2-0.1-0.5-0.1-0.7C-911.2,437-911.2,437.2-911.2,437.4z"/>
	<path class="st13" d="M-911.3,432.6c0-0.2,0-0.4,0.1-0.6C-911.3,432.2-911.3,432.4-911.3,432.6z"/>
	<path class="st13" d="M-910.6,439.7c-0.1-0.2-0.1-0.4-0.2-0.5C-910.7,439.4-910.7,439.5-910.6,439.7z"/>
	<path class="st13" d="M-910.7,429.8c0.1-0.3,0.2-0.6,0.4-0.9C-910.5,429.2-910.6,429.5-910.7,429.8z"/>
	<path class="st13" d="M-907.2,424.2c0.3-0.3,0.6-0.6,1-0.8C-906.6,423.6-906.9,423.9-907.2,424.2z"/>
	<path class="st13" d="M-909.9,427.7c0.2-0.3,0.4-0.7,0.6-1C-909.5,427-909.7,427.4-909.9,427.7z"/>
	<path class="st13" d="M-906.2,445.9c-0.2-0.1-0.4-0.3-0.6-0.4C-906.6,445.6-906.4,445.7-906.2,445.9z"/>
	<path class="st13" d="M-908.1,444.1c-0.1-0.1-0.2-0.2-0.3-0.3C-908.3,443.9-908.2,444-908.1,444.1z"/>
	<path class="st14" d="M-907.9,424.9c0.2-0.2,0.5-0.5,0.7-0.7C-907.4,424.4-907.7,424.6-907.9,424.9z"/>
	<path class="st14" d="M-911.4,434.3c0-0.6,0.1-1.2,0.1-1.8C-911.4,433.2-911.4,433.7-911.4,434.3z"/>
	<path class="st14" d="M-911.3,436.7c-0.1-0.6-0.1-1.1-0.1-1.7C-911.4,435.6-911.3,436.2-911.3,436.7z"/>
	<path class="st14" d="M-911.2,432c0.1-0.7,0.3-1.5,0.5-2.2C-910.9,430.5-911.1,431.2-911.2,432z"/>
	<path class="st14" d="M-906.1,423.3C-906.2,423.3-906.2,423.3-906.1,423.3C-906.2,423.3-906.2,423.3-906.1,423.3
		C-906.2,423.3-906.2,423.3-906.1,423.3z"/>
	<path class="st14" d="M-910.3,428.9c0.2-0.4,0.3-0.8,0.5-1.1C-910,428.1-910.2,428.5-910.3,428.9z"/>
	<path class="st14" d="M-910.7,439.2c-0.2-0.6-0.3-1.1-0.4-1.7C-911.1,438-910.9,438.6-910.7,439.2z"/>
	<path class="st14" d="M-909.3,426.7c0.2-0.3,0.4-0.6,0.6-0.9C-908.9,426.1-909.1,426.4-909.3,426.7z"/>
	<path class="st14" d="M-910.6,439.7c0.5,1.4,1.1,2.7,2,3.8h0C-909.4,442.4-910.1,441.1-910.6,439.7z"/>
	<path class="st14" d="M-906.7,445.4c-0.5-0.4-0.9-0.8-1.3-1.3C-907.7,444.6-907.2,445-906.7,445.4z"/>
	<path class="st14" d="M-908.6,443.5c0.1,0.1,0.2,0.2,0.2,0.3C-908.4,443.7-908.5,443.6-908.6,443.5L-908.6,443.5z"/>
	<g>
		<path class="st0" d="M-854.7,360c-0.2,0.5-0.4,0.9-0.7,1.3C-855.2,360.9-854.9,360.4-854.7,360z"/>
		<path class="st0" d="M-854.7,360C-854.7,360-854.7,360-854.7,360C-854.7,360-854.7,360-854.7,360C-854.7,360-854.7,360-854.7,360z
			"/>
		<path class="st0" d="M-915.8,341.8c1.8-1.4,4-2.3,6.7-2.3h0h44.3c10.4,0,13.8,12.4,10.1,20.4c-1.8,1.4-4,2.2-6.7,2.2h-44.3
			c-0.2,0-0.5,0-0.7-0.1C-916.2,361.6-919.4,349.7-915.8,341.8z"/>
	</g>
	<path class="st14" d="M-905.8,366.7L-905.8,366.7l41,0c0.9,0,1.7-0.1,2.5-0.3c-0.8,0.2-1.6,0.3-2.5,0.3H-905.8z"/>
	<path class="st2" d="M-920.5,350.9c0-0.1,0-0.3,0-0.4c0.1-0.7,0.3-1.5,0.5-2.2c0.1-0.3,0.2-0.6,0.3-1c0.1-0.4,0.3-0.7,0.4-1.1
		c0.2-0.4,0.4-0.7,0.6-1.1c0.1-0.3,0.3-0.5,0.5-0.8c0.3-0.4,0.5-0.7,0.8-1.1c0.2-0.2,0.3-0.3,0.5-0.5c0.3-0.4,0.7-0.7,1.1-1
		c0,0,0,0,0,0c-3.6,7.8-0.4,19.8,9.4,20.3c0.2,0,0.5,0.1,0.7,0.1h44.3c2.7,0,4.9-0.9,6.7-2.2c-0.2,0.5-0.5,0.9-0.7,1.4
		c0,0,0,0.1,0,0.1c-0.4,0.7-1,1.4-1.5,2c-0.1,0.2-0.3,0.3-0.4,0.5c-0.2,0.2-0.5,0.4-0.8,0.7c-0.4,0.3-0.7,0.5-1.1,0.8
		c-0.2,0.1-0.3,0.2-0.5,0.3c-0.6,0.3-1.3,0.5-2,0.7c-0.2,0-0.3,0.1-0.5,0.1c-0.8,0.2-1.6,0.3-2.5,0.3h-41h-3.3
		c-0.9,0-1.8-0.1-2.6-0.3c-0.1,0-0.2-0.1-0.3-0.1c-0.7-0.2-1.3-0.4-2-0.7c-0.1-0.1-0.2-0.1-0.4-0.2c-0.6-0.3-1.1-0.7-1.7-1.1
		c-0.1-0.1-0.1-0.1-0.2-0.2c-1.8-1.5-3-3.6-3.7-5.9c0-0.1,0-0.1-0.1-0.2c-0.2-0.7-0.4-1.4-0.5-2.1c0-0.1,0-0.3-0.1-0.4
		c-0.1-0.6-0.1-1.3-0.1-1.9c0-0.2,0-0.4,0-0.5C-920.7,352.3-920.6,351.6-920.5,350.9z"/>
	<g>
		<path class="st0" d="M-848.1,387.5c0-0.1,0.1-0.2,0.1-0.2c0,0,0,0,0,0C-848,387.3-848,387.4-848.1,387.5z"/>
		<path class="st0" d="M-848.1,387.5c-0.2,0.3-0.4,0.6-0.6,0.9C-848.5,388.1-848.3,387.8-848.1,387.5z"/>
		<path class="st0" d="M-921.2,369.1C-921.2,369.1-921.2,369.1-921.2,369.1c-0.2,0.2-0.4,0.3-0.6,0.4
			C-921.6,369.4-921.4,369.2-921.2,369.1z"/>
		<path class="st0" d="M-921.8,369.5c-0.3,0.2-0.6,0.5-0.9,0.7C-922.4,370-922.1,369.7-921.8,369.5z"/>
		<path class="st0" d="M-921.2,369.1c2.1-1.4,4.8-2.3,8.1-2.3h7.4h45.8c12.5,0,16.5,12.4,12.1,20.4c-2.1,1.4-4.8,2.2-8,2.2h-47.1h-6
			C-921.5,389.5-925.6,377.2-921.2,369.1z"/>
		<path class="st0" d="M-921.8,369.5C-921.8,369.5-921.8,369.5-921.8,369.5C-921.8,369.5-921.8,369.5-921.8,369.5z"/>
	</g>
	<path class="st14" d="M-857.1,393.7c-0.9,0.2-1.9,0.3-3,0.3h0h0h-42.5l0,0h37.5c0,0,0,0,0,0h4.9C-859,394-858,393.8-857.1,393.7z"
		/>
	<path class="st14" d="M-916.3,393.6c1,0.2,2,0.3,3.1,0.3h3.2c0,0,0,0,0,0h7.4l0,0h-10.7C-914.3,393.9-915.4,393.8-916.3,393.6z"/>
	<path class="st2" d="M-926.9,378.3c0-0.2,0-0.4,0.1-0.6c0.1-0.7,0.3-1.4,0.6-2.1c0.1-0.4,0.3-0.8,0.5-1.2c0.1-0.3,0.2-0.5,0.4-0.8
		c0.2-0.4,0.5-0.9,0.8-1.3c0.1-0.2,0.3-0.4,0.4-0.5c0.3-0.4,0.7-0.8,1.1-1.2c0.1-0.1,0.2-0.2,0.3-0.3c0.5-0.4,0.9-0.8,1.5-1.2
		c-4.4,8-0.3,20.4,12.2,20.4h6h47.1c3.3,0,5.9-0.9,8-2.2c-0.2,0.4-0.5,0.8-0.7,1.2c-0.1,0.2-0.2,0.3-0.4,0.5
		c-0.3,0.4-0.7,0.9-1.1,1.2c-0.4,0.4-0.7,0.7-1.1,1c-0.2,0.2-0.5,0.3-0.7,0.5c-0.5,0.3-1.1,0.7-1.7,0.9c-0.1,0.1-0.2,0.1-0.4,0.2
		c-0.8,0.3-1.6,0.6-2.5,0.8c-0.2,0-0.3,0.1-0.5,0.1c-0.9,0.2-1.9,0.3-3,0.3h-42.5h-10.7c-1.1,0-2.2-0.1-3.2-0.3
		c-0.1,0-0.2-0.1-0.3-0.1c-0.8-0.2-1.6-0.4-2.4-0.7c-0.1-0.1-0.3-0.1-0.4-0.2c-0.7-0.3-1.4-0.7-2-1.1c-0.1-0.1-0.2-0.1-0.3-0.2
		c-2.1-1.5-3.6-3.6-4.4-5.9c0-0.1,0-0.2-0.1-0.2c-0.2-0.7-0.4-1.4-0.5-2c0-0.2-0.1-0.3-0.1-0.5c-0.1-0.6-0.1-1.2-0.2-1.9
		c0-0.2,0-0.4,0-0.6C-927.1,379.6-927,378.9-926.9,378.3z"/>
	<path class="st13" d="M-910,421.1c-0.2,0-0.3,0-0.5,0C-910.3,421-910.1,421.1-910,421.1l10.5,0c0,0,0.1,0,0.1,0H-910z"/>
	<g>
		<path class="st0" d="M-857.4,418.1c-0.3,0.3-0.7,0.6-1.1,0.9C-858.1,418.7-857.7,418.4-857.4,418.1z"/>
		<path class="st0" d="M-857.4,418.1C-857.4,418-857.3,418-857.4,418.1C-857.3,418-857.4,418-857.4,418.1z"/>
		<path class="st0" d="M-916.8,396.2c1.8-1.4,4-2.3,6.8-2.3h7.4h37.5c12.4,0,14.9,16.9,7.7,24c1.1-1,1.9-2.3,2.5-3.7
			c-1.8,1.4-4,2.3-6.8,2.3h-38.2h-6.7C-917,416.6-920.4,404.3-916.8,396.2z"/>
	</g>
	<path class="st13" d="M-910,394h7.4l0,0L-910,394C-910,394-910,394-910,394z"/>
	<path class="st2" d="M-921.6,405.7c0-0.3,0-0.6,0.1-0.9c0.1-0.7,0.3-1.4,0.5-2.1c0.1-0.4,0.3-0.7,0.4-1.1c0.1-0.3,0.3-0.7,0.4-1
		c0.2-0.4,0.4-0.7,0.6-1.1c0.2-0.3,0.3-0.6,0.5-0.8c0.2-0.3,0.5-0.7,0.7-1c0.2-0.2,0.4-0.5,0.7-0.7c0.3-0.3,0.6-0.6,0.9-0.8
		c0,0,0.1,0,0.1-0.1c-3.7,8-0.3,20.3,10.3,20.3h6.7h38.2c2.8,0,5-0.9,6.8-2.3c-0.9,1.9-2.1,3.5-3.7,4.7c-0.2,0.1-0.4,0.3-0.6,0.4
		c-0.4,0.3-0.9,0.5-1.3,0.7c-0.4,0.2-0.9,0.4-1.4,0.5c-0.3,0.1-0.6,0.1-0.9,0.2c-0.6,0.1-1.3,0.2-1.9,0.2c-0.1,0-0.2,0-0.4,0h-4.3
		c-0.2,0-0.3-0.1-0.5-0.1h-29c-0.1,0-0.2,0-0.4,0c0,0-0.1,0-0.1,0H-910c-0.2,0-0.3,0-0.5,0c-0.7,0-1.4-0.1-2-0.2
		c-0.3-0.1-0.6-0.2-0.9-0.3c-0.5-0.1-1-0.3-1.4-0.5c-0.3-0.1-0.5-0.3-0.8-0.4c-0.4-0.2-0.8-0.5-1.2-0.8c-0.2-0.2-0.4-0.3-0.6-0.5
		c-0.4-0.4-0.8-0.8-1.2-1.2c-0.1-0.1-0.2-0.2-0.3-0.4c-0.5-0.6-0.9-1.3-1.2-1.9c0-0.1,0-0.1-0.1-0.2c-0.3-0.6-0.6-1.3-0.8-1.9
		c-0.1-0.2-0.1-0.5-0.2-0.7c-0.1-0.5-0.3-1-0.4-1.6c0-0.3-0.1-0.6-0.1-0.8c-0.1-0.5-0.1-1-0.1-1.5c0-0.3,0-0.6,0-0.9
		C-921.7,406.7-921.6,406.2-921.6,405.7z"/>
	<g>
		<polygon class="st0" points="-858.9,441.4 -858.9,441.4 -858.9,441.4 		"/>
		<path class="st0" d="M-858.9,441.4c-0.2,0.5-0.5,0.9-0.8,1.4C-859.4,442.3-859.1,441.9-858.9,441.4z"/>
		<path class="st0" d="M-906.2,423.3c1.8-1.3,4-2.1,6.6-2.2h0.3h30c10.8,0.5,14.2,12.4,10.3,20.3c-1.9,1.4-4.3,2.3-7.2,2.3h-29
			c-0.3,0-0.6,0-0.8-0.1v0h-0.5h0C-906.7,442.6-909.9,431-906.2,423.3z"/>
	</g>
	<path class="st13" d="M-896,443.6L-896,443.6l-0.5,0v0C-896.4,443.6-896.2,443.6-896,443.6z"/>
	<path class="st13" d="M-901.6,447.9c-0.3-0.1-0.6-0.2-0.9-0.2C-902.2,447.7-901.9,447.8-901.6,447.9z"/>
	<polygon class="st13" points="-896.5,443.5 -896.5,443.5 -896.6,443.5 	"/>
	<path class="st13" d="M-904,447.1c-0.3-0.1-0.5-0.2-0.8-0.4C-904.5,446.9-904.3,447-904,447.1z"/>
	<path class="st13" d="M-899.3,421.1L-899.3,421.1l30,0c0,0-0.1,0-0.1,0H-899.3z"/>
	<path class="st13" d="M-899.5,421.1h0.3l0,0h-0.1C-899.4,421.1-899.5,421.1-899.5,421.1z"/>
	<path class="st13" d="M-869.4,421.1c-0.2,0-0.3-0.1-0.5-0.1h-29c-0.1,0-0.2,0-0.4,0l0,0H-869.4z"/>
	<path class="st13" d="M-899.3,421.1L-899.3,421.1c0,0-0.1,0-0.1,0H-899.3z"/>
	<path class="st14" d="M-902.4,447.6c-0.5-0.1-1.1-0.3-1.6-0.5C-903.5,447.3-903,447.5-902.4,447.6z"/>
	<path class="st14" d="M-904.8,446.7c-0.5-0.3-0.9-0.5-1.4-0.8C-905.7,446.2-905.3,446.5-904.8,446.7z"/>
	<path class="st2" d="M-911.3,432.6c0-0.2,0-0.4,0.1-0.6c0.1-0.7,0.3-1.5,0.5-2.2c0.1-0.3,0.2-0.6,0.4-0.9c0.2-0.4,0.3-0.8,0.5-1.1
		c0.2-0.3,0.4-0.7,0.6-1c0.2-0.3,0.4-0.6,0.6-0.9c0.2-0.3,0.5-0.7,0.8-1c0.2-0.2,0.5-0.5,0.7-0.7c0.3-0.3,0.6-0.6,1-0.8
		c0,0,0.1,0,0.1,0c-3.8,7.7-0.6,19.3,9.6,20.2c0,0,0,0,0,0c0.2,0,0.4,0,0.5,0c0.3,0,0.5,0.1,0.8,0.1h29c2.9,0,5.3-0.9,7.2-2.3
		c-0.2,0.5-0.5,0.9-0.8,1.4c0,0,0,0,0,0c-0.6,0.8-1.2,1.6-2,2.3c-0.1,0-0.1,0.1-0.2,0.2c-0.3,0.3-0.7,0.5-1,0.8
		c-0.3,0.2-0.6,0.4-0.9,0.5c-0.4,0.2-0.7,0.4-1.1,0.6c-0.5,0.2-1.1,0.4-1.7,0.6c-0.3,0.1-0.6,0.1-0.9,0.2c-0.7,0.1-1.4,0.2-2.2,0.2
		c-0.1,0-0.2,0-0.3,0H-896h-2.9c-0.1,0-0.1,0-0.1,0c-0.1,0-0.2,0-0.3,0c-0.8,0-1.6-0.1-2.3-0.2c-0.3-0.1-0.6-0.2-0.9-0.2
		c-0.5-0.1-1.1-0.3-1.6-0.5c-0.3-0.1-0.5-0.2-0.8-0.4c-0.5-0.3-0.9-0.5-1.4-0.8c-0.2-0.1-0.4-0.3-0.6-0.4c-0.5-0.4-0.9-0.8-1.3-1.3
		c-0.1-0.1-0.2-0.2-0.3-0.3c-0.1-0.1-0.1-0.2-0.2-0.3c-0.9-1.1-1.6-2.4-2-3.8c-0.1-0.2-0.1-0.4-0.2-0.5c-0.2-0.6-0.3-1.1-0.4-1.7
		c0-0.2-0.1-0.5-0.1-0.7c-0.1-0.6-0.1-1.1-0.1-1.7c0-0.2,0-0.5,0-0.7C-911.4,433.7-911.4,433.1-911.3,432.6z"/>
</g>
<circle class="st4" cx="-1027.5" cy="387.5" r="11.2"/>
<circle class="st15" cx="-1027.5" cy="387.5" r="16.4"/>
<g>
	<path class="st0" d="M-375.3,111.9c10.8-2.5,17.8,2.8,17.8,13.2c0,13.7-14.5,47.3-29.7,26.3C-402.4,130.4-375.3,111.9-375.3,111.9z
		"/>
</g>
<g>
	<path class="st0" d="M-551.7,111.9c-9.9-2.5-16.3,2.8-16.3,13.2c0,13.7,13.3,47.3,27.2,26.3C-526.9,130.4-551.7,111.9-551.7,111.9z
		"/>
</g>
<g>
	<path class="st1" d="M-535.1,241.7c14.7-9.5,13.1-50.8,13.1-57.4h118.4c0,6.6-1.8,47.9,12.9,57.4l-72.1,67.6L-535.1,241.7z"/>
</g>
<g>
	<path class="st2" d="M-416.7,256.7l26.1-15c-14.7-9.5-12.9-50.8-12.9-57.4H-522C-513.5,208.7-457.3,250.7-416.7,256.7z"/>
</g>
<g>
	<path class="st0" d="M-370.7,98.8c0,52.7-30.3,118.4-92.1,118.4s-92.1-65.8-92.1-118.4c0-72.4,41.2-98.8,92.1-98.8
		S-370.7,26.7-370.7,98.8z"/>
</g>
<g>
	<path class="st3" d="M-311.4,395.4c10.9,0,19.7-8.8,19.7-19.7V311c0-29-22.6-59.9-50.1-68.7l-41.2-13.2c-22.1,16.9-53.8,40-79.8,40
		s-57.6-23.1-79.8-40l-41.2,13.2c-27.5,8.8-50.1,39.7-50.1,68.7v64.7c0,10.9,8.8,19.7,19.7,19.7L-311.4,395.4L-311.4,395.4z"/>
</g>
<g>
	<path class="st4" d="M-592.6,395.4H-333V246c-2.9-1.5-5.8-2.8-8.9-3.7l-41.2-13.2c-22.1,16.9-53.8,40-79.8,40s-57.6-23.1-79.8-40
		l-41.2,13.2c-3,1-6,2.2-8.9,3.7C-592.6,246-592.6,395.4-592.6,395.4z"/>
</g>
<g>
	<path class="st5" d="M-462.8,269.2l-27.5,27.5c-2.9,2.9-7.6,2.5-10-0.8l-48.1-66.2l15.3-15.3c2.5-2.5,6.5-2.6,9.1-0.2L-462.8,269.2
		z"/>
</g>
<g>
	<path class="st5" d="M-462.8,269.2l27.5,27.5c2.9,2.9,7.6,2.5,10-0.8l48.1-66.2l-15.3-15.3c-2.5-2.5-6.5-2.6-9.1-0.2L-462.8,269.2z
		"/>
</g>
<g>
	<path class="st4" d="M-583.7,242.3"/>
</g>
<g>
	<path class="st6" d="M-372.8,79.5c-5.3-6.8-11-13.7-11-13.7v6.6c1.6,59.6-19.7,85.5-19.7,85.5l-27.2,3c-21.3,2.4-42.7,2.4-63.9,0
		l-27.2-3c0,0-21.4-25.9-19.7-85.5v-6.6c0,0-5.7,6.9-11,13.7c-1.4,5.9-2.2,12.2-2.2,19.3c0,52.7,30.3,118.4,92.1,118.4
		s92.1-65.8,92.1-118.4C-370.7,91.8-371.4,85.4-372.8,79.5z M-443,199.9c-7.3,0-13.2-5.9-13.2-13.2h-13.2c0,7.3-5.9,13.2-13.2,13.2
		c-7.3,0-13.2-5.9-13.2-13.2s5.9-13.2,13.2-13.2h39.5c7.3,0,13.2,5.9,13.2,13.2S-435.8,199.9-443,199.9z"/>
</g>
<g>
	<path class="st7" d="M-370.8-19.2c-43.5,0-111.4-33.7-138,6.6c-1.8,0-3.5,0-6.7,0c-25.4,0-46.1,20.9-46.1,46.3
		c0,23.6,6.6,78.7,6.6,78.7s14-41.5,39.5-65.8l125,13.2l19.7,52.6C-359.7,74.9-364.2-9.7-370.8-19.2z"/>
</g>
<g>
	<g>
		<path class="st8" d="M-370.8-19.2c-43.5,0-111.4-33.7-138,6.6c-1.8,0-3.5,0-6.7,0c-18,0-33.6,10.5-41.2,25.6
			c59.4,70.5,152.2,56.6,192.4,46.2C-363.3,23.7-366.6-13.1-370.8-19.2z"/>
	</g>
</g>
<g>
	<g>
		<g>
			<path class="st8" d="M-477.6,109.2v4.9c0,14.5-11.8,26.3-26.3,26.3h-6.6c-7.3,0-13.2-5.9-13.2-13.2v-18.1L-477.6,109.2
				 M-477.6,102.7h-46.1c-3.6,0-6.6,2.9-6.6,6.6v18.1c0,10.9,8.8,19.7,19.7,19.7h6.6c18.2,0,32.9-14.7,32.9-32.9v-4.9
				C-471,105.6-474,102.7-477.6,102.7L-477.6,102.7z"/>
		</g>
	</g>
	<g>
		<g>
			<path class="st8" d="M-402.1,109.2v18.1c0,7.3-5.9,13.2-13.2,13.2h-6.6c-14.5,0-26.3-11.8-26.3-26.3v-4.9L-402.1,109.2
				 M-402.1,102.7h-46.1c-3.6,0-6.6,2.9-6.6,6.6v4.9c0,18.2,14.7,32.9,32.9,32.9h6.6c10.9,0,19.7-8.8,19.7-19.7v-18.1
				C-395.5,105.6-398.4,102.7-402.1,102.7L-402.1,102.7z"/>
		</g>
	</g>
	<g>
		<g>
			<polygon class="st8" points="-555.1,102.7 -523.7,102.7 -523.7,118.3 -555.1,110.8 			"/>
		</g>
	</g>
	<g>
		<g>
			<polygon class="st8" points="-370.7,102.7 -402.1,102.7 -402.1,118.3 -370.7,110.8 			"/>
		</g>
	</g>
	<g>
		<g>
			<path class="st8" d="M-447.8,118.3h-6.6c0-2.8-3.9-5.3-8.4-5.3s-8.4,2.5-8.4,5.3h-6.6c0-6.7,6.6-11.9,15-11.9
				S-447.8,111.6-447.8,118.3z"/>
		</g>
	</g>
</g>
<g>
	
		<ellipse transform="matrix(0.9997 -2.251899e-02 2.251899e-02 0.9997 -2.0887 -11.6931)" class="st8" cx="-520.2" cy="86.9" rx="3.3" ry="3.3"/>
	
		<ellipse transform="matrix(0.9997 -2.251899e-02 2.251899e-02 0.9997 -1.961 -10.9468)" class="st8" cx="-487" cy="81.6" rx="4" ry="4"/>
	<path class="st8" d="M-522.2,84.2c11.2-16.3,33.2-12.4,38-5.5c-2.1,4.5-5.1,4.8-5.7,5.7c-4.2-5.1-16.1-9-27.9,4.7"/>
</g>
<g>
	
		<ellipse transform="matrix(2.251899e-02 -0.9997 0.9997 2.251899e-02 -485.7415 -315.5576)" class="st8" cx="-404.2" cy="90.6" rx="3.3" ry="3.3"/>
	
		<ellipse transform="matrix(2.251899e-02 -0.9997 0.9997 2.251899e-02 -512.8143 -353.8936)" class="st8" cx="-437.4" cy="85.3" rx="4" ry="4"/>
	<path class="st8" d="M-402.2,88c-11.2-16.3-33.2-12.4-38-5.5c2.1,4.5,5.1,4.8,5.7,5.7c4.2-5.1,16.1-9,27.9,4.7"/>
</g>
<g>
	<circle class="st8" cx="-508.2" cy="123.9" r="1.8"/>
	<circle class="st8" cx="-493" cy="123.9" r="1.8"/>
	<g>
		<path class="st8" d="M-510.1,123.9h3.7c0-5.2,11.5-5.2,11.5,0h3.7C-491.2,114.6-510.1,114.8-510.1,123.9z"/>
	</g>
</g>
<g>
	<circle class="st8" cx="-432.7" cy="123.9" r="1.8"/>
	<circle class="st8" cx="-417.5" cy="123.9" r="1.8"/>
	<g>
		<path class="st8" d="M-434.5,123.9h3.7c0-5.2,11.5-5.2,11.5,0h3.7C-415.7,114.6-434.5,114.8-434.5,123.9z"/>
	</g>
</g>
<path class="st8" d="M-452.7,175.9c0,3.6-4.6,6.4-10.4,6.4s-10.4-2.9-10.4-6.4"/>
<g>
	<g>
		<path class="st0" d="M-301.6,359.5l-15.9,11.2c0,0-7.9-22.3-14-36.2c-2.5-5.7-10.2-7.8-13.7-15.8c-6.2-14,1.1-26,8.5-17.3
			c8.5,10,21,17.5,23.5,23.2C-309,334.2-301.6,359.5-301.6,359.5"/>
		<path class="st0" d="M-288.9,368.6c1.1,7.6,0.2,19.6-6.5,33.6c0,0-13.7-16.5-15.3-24c0,0-3.9-28.7-7.8-47
			c-1.6-7.5-10.3-11.9-12.6-22.4c-4-18.3,7.8-31,14.5-18.7c7.7,14.2,20.8,26.2,22.4,33.7C-291.5,336.4-290.5,357.4-288.9,368.6"/>
	</g>
	<path class="st2" d="M-309.2,354.2c0,0-1.3-10.8-5.2-29.1c-1.6-7.5-10.3-11.9-12.6-22.4c-1.4-6.3-0.9-11.9,0.6-16.1
		c-4.1,3.2-7.5,11.8-5.2,22.3c2.3,10.5,11,14.9,12.6,22.4c1.7,7.9,3.1,16.1,3.1,16.1l-12.1-4.5L-309.2,354.2"/>
	<path class="st0" d="M-294.7,365.7c-16-14.5-33.7-23.3-45.2-29c-17.1-8.4-12.6,3.2-41.7,10.8c-3.8,1-8.4,3.8-4.9,11.1
		c3.4,7,30.9,1.7,35.2-2.5c0,0,11.5,14.1,23,13.8c0,0-2,9.3,0.8,13.9c0,0-16.3,8.5-23.3,15.9l-19.4-13c-1.4-20.1-5.1-26-14.9-25.1
		c-9.2,0.9-8.2,9.5-8,16.6c0.4,12.8-3,14.9,0.1,19.9c12,19.4,27,31.5,54.9,31.5c10.5,0,17.1-0.3,23.5-3.5
		C-303.9,420.9-277.1,381.7-294.7,365.7"/>
	<g>
		<path class="st2" d="M-291.6,369.5c6,18.3-15.4,48.4-24.7,53c-6.4,3.2-13.1,3.5-23.5,3.5c-27.6,0-42.7-11.8-54.5-30.8
			c0.3,1.1,0.7,2.1,1.3,3c12,19.4,27,31.5,54.9,31.5c10.5,0,17.1-0.3,23.5-3.5C-304.6,421.3-280.9,387.2-291.6,369.5"/>
		<path class="st2" d="M-373.6,387.3c0,0,18,11.6,22.4,12.2l-19-12.8c0.8-20.3-5.2-26.7-14.9-25.1c-0.8,0.1-1.5,0.3-2.1,0.5
			C-377.5,361.1-372.8,367.6-373.6,387.3"/>
		<path class="st2" d="M-351.4,356.1c0,0,11.5,14.1,23,13.8v-2.6c-11.5,0.3-23-13.8-23-13.8c-4.3,4.2-31.8,9.5-35.2,2.5
			c-0.6-1.2-0.9-2.3-1.1-3.3c-0.3,1.5-0.1,3.5,1.1,5.9C-383.1,365.7-355.6,360.4-351.4,356.1"/>
	</g>
</g>
<g>
	<g>
		<path class="st0" d="M-623.6,364.2c0,0,7.4-25.3,11.7-34.9c2.5-5.7,14.9-13.2,23.5-23.2c7.4-8.7,14.7,3.4,8.5,17.3
			c-3.6,8-11.2,10.1-13.7,15.8c-6.1,14-14,36.2-14,36.2L-623.6,364.2"/>
		<path class="st0" d="M-636.3,373.3c1.6-11.1,2.7-32.2,5.3-44.8c1.6-7.5,14.7-19.5,22.4-33.7c6.7-12.3,18.4,0.4,14.5,18.7
			c-2.3,10.5-11,14.8-12.6,22.4c-3.9,18.3-7.8,47-7.8,47c-1.6,7.5-15.3,24-15.3,24C-636.4,392.9-637.4,380.9-636.3,373.3"/>
	</g>
	<path class="st2" d="M-615.9,358.9l18.7-11.3l-12.1,4.5c0,0,1.4-8.2,3.1-16.1c1.6-7.5,10.4-11.9,12.6-22.4
		c2.3-10.5-1.1-19.1-5.2-22.3c1.5,4.2,2,9.8,0.6,16.1c-2.3,10.5-11,14.8-12.6,22.4C-614.6,348.1-615.9,358.9-615.9,358.9"/>
	<path class="st0" d="M-630.5,370.5c-17.6,16,9.2,55.1,19.9,60.5c6.4,3.2,13.1,3.5,23.5,3.5c27.9,0,42.9-12,54.9-31.5
		c3.1-5.1-0.3-7.2,0.1-19.9c0.2-7.1,1.2-15.7-8-16.6c-9.9-1-13.5,5-14.9,25.1l-19.4,13c-7-7.4-23.3-15.9-23.3-15.9
		c2.8-4.5,0.8-13.9,0.8-13.9c11.5,0.3,23-13.8,23-13.8c4.3,4.2,31.8,9.5,35.2,2.5c3.5-7.3-1.1-10.1-4.9-11.1
		c-29.1-7.6-24.6-19.2-41.7-10.8C-596.8,347.1-614.5,355.9-630.5,370.5"/>
	<g>
		<path class="st2" d="M-633.6,374.3c-10.7,17.7,13.1,51.7,23,56.7c6.4,3.2,13.1,3.5,23.5,3.5c27.9,0,42.9-12,54.9-31.5
			c0.6-1,1-2,1.3-3c-11.8,19-26.9,30.8-54.5,30.8c-10.5,0-17.1-0.3-23.5-3.5C-618.2,422.7-639.6,392.6-633.6,374.3"/>
		<path class="st2" d="M-551.5,392.1c-0.8-19.8,3.9-26.2,13.7-25.2c-0.6-0.2-1.4-0.3-2.1-0.5c-9.8-1.7-15.7,4.8-14.9,25.1l-19,12.8
			C-569.5,403.6-551.5,392.1-551.5,392.1"/>
		<path class="st2" d="M-573.8,360.9c4.3,4.2,31.8,9.5,35.2,2.5c1.2-2.5,1.4-4.4,1.1-5.9c-0.2,1-0.5,2.1-1.1,3.3
			c-3.4,7-30.9,1.7-35.2-2.5c0,0-11.5,14.1-23,13.8v2.6C-585.3,375-573.8,360.9-573.8,360.9"/>
	</g>
</g>
<g>
	<path class="st0" d="M285.2,111.9c10.8-2.5,17.8,2.8,17.8,13.2c0,13.7-14.5,47.3-29.7,26.3C258.1,130.4,285.2,111.9,285.2,111.9z"
		/>
</g>
<g>
	<path class="st0" d="M108.8,111.9c-9.9-2.5-16.3,2.8-16.3,13.2c0,13.7,13.3,47.3,27.2,26.3S108.8,111.9,108.8,111.9z"/>
</g>
<g>
	<path class="st1" d="M125.4,241.7c14.7-9.5,13.1-50.8,13.1-57.4h118.4c0,6.6-1.8,47.9,12.9,57.4l-72.1,67.6L125.4,241.7z"/>
</g>
<g>
	<path class="st2" d="M243.8,256.7l26.1-15c-14.7-9.5-12.9-50.8-12.9-57.4H138.5C147,208.7,203.2,250.7,243.8,256.7z"/>
</g>
<g>
	<path class="st0" d="M289.8,98.8c0,52.7-30.3,118.4-92.1,118.4s-92.1-65.8-92.1-118.4c0-72.4,41.2-98.8,92.1-98.8
		S289.8,26.7,289.8,98.8z"/>
</g>
<g>
	<path class="st3" d="M349.1,395.4c10.9,0,19.7-8.8,19.7-19.7V311c0-29-22.6-59.9-50.1-68.7l-41.2-13.2c-22.1,16.9-53.8,40-79.8,40
		s-57.6-23.1-79.8-40l-41.2,13.2C49.2,251.1,26.6,282,26.6,311v64.7c0,10.9,8.8,19.7,19.7,19.7L349.1,395.4L349.1,395.4z"/>
</g>
<g>
	<path class="st4" d="M67.9,395.4h259.6V246c-2.9-1.5-5.8-2.8-8.9-3.7l-41.2-13.2c-22.1,16.9-53.8,40-79.8,40s-57.6-23.1-79.8-40
		l-41.2,13.2c-3,1-6,2.2-8.9,3.7C67.9,246,67.9,395.4,67.9,395.4z"/>
</g>
<g>
	<path class="st5" d="M197.7,269.2l-27.5,27.5c-2.9,2.9-7.6,2.5-10-0.8l-48.1-66.2l15.3-15.3c2.5-2.5,6.5-2.6,9.1-0.2L197.7,269.2z"
		/>
</g>
<g>
	<path class="st5" d="M197.7,269.2l27.5,27.5c2.9,2.9,7.6,2.5,10-0.8l48.1-66.2L268,214.4c-2.5-2.5-6.5-2.6-9.1-0.2L197.7,269.2z"/>
</g>
<g>
	<path class="st4" d="M76.8,242.3"/>
</g>
<g>
	<path class="st6" d="M287.7,79.5c-5.3-6.8-11-13.7-11-13.7v6.6c1.6,59.6-19.7,85.5-19.7,85.5l-27.2,3c-21.3,2.4-42.7,2.4-63.9,0
		l-27.2-3c0,0-21.4-25.9-19.7-85.5v-6.6c0,0-5.7,6.9-11,13.7c-1.4,5.9-2.2,12.2-2.2,19.3c0,52.7,30.3,118.4,92.1,118.4
		S290,151.4,290,98.8C289.8,91.8,289.1,85.4,287.7,79.5z M217.5,199.9c-7.3,0-13.2-5.9-13.2-13.2h-13.2c0,7.3-5.9,13.2-13.2,13.2
		s-13.2-5.9-13.2-13.2s5.9-13.2,13.2-13.2h39.5c7.3,0,13.2,5.9,13.2,13.2S224.7,199.9,217.5,199.9z"/>
</g>
<g>
	<path class="st7" d="M289.7-19.2c-43.5,0-111.4-33.7-138,6.6c-1.8,0-3.5,0-6.7,0c-25.4,0-46.1,20.9-46.1,46.3
		c0,23.6,6.6,78.7,6.6,78.7s14-41.5,39.5-65.8l125,13.2l19.7,52.6C300.8,74.9,296.3-9.7,289.7-19.2z"/>
</g>
<g>
	<g>
		<path class="st8" d="M289.7-19.2c-43.5,0-111.4-33.7-138,6.6c-1.8,0-3.5,0-6.7,0c-18,0-33.6,10.5-41.2,25.6
			C163.2,83.5,256,69.6,296.2,59.2C297.2,23.7,293.9-13.1,289.7-19.2z"/>
	</g>
</g>
<g>
	<g>
		<g>
			<path class="st8" d="M182.9,109.2v4.9c0,14.5-11.8,26.3-26.3,26.3H150c-7.3,0-13.2-5.9-13.2-13.2v-18.1L182.9,109.2 M182.9,102.7
				h-46.1c-3.6,0-6.6,2.9-6.6,6.6v18.1c0,10.9,8.8,19.7,19.7,19.7h6.6c18.2,0,32.9-14.7,32.9-32.9v-4.9
				C189.5,105.6,186.5,102.7,182.9,102.7L182.9,102.7z"/>
		</g>
	</g>
	<g>
		<g>
			<path class="st8" d="M258.4,109.2v18.1c0,7.3-5.9,13.2-13.2,13.2h-6.6c-14.5,0-26.3-11.8-26.3-26.3v-4.9L258.4,109.2
				 M258.4,102.7h-46.1c-3.6,0-6.6,2.9-6.6,6.6v4.9c0,18.2,14.7,32.9,32.9,32.9h6.6c10.9,0,19.7-8.8,19.7-19.7v-18.1
				C265,105.6,262.1,102.7,258.4,102.7L258.4,102.7z"/>
		</g>
	</g>
	<g>
		<g>
			<polygon class="st8" points="105.4,102.7 136.8,102.7 136.8,118.3 105.4,110.8 			"/>
		</g>
	</g>
	<g>
		<g>
			<polygon class="st8" points="289.8,102.7 258.4,102.7 258.4,118.3 289.8,110.8 			"/>
		</g>
	</g>
	<g>
		<g>
			<path class="st8" d="M212.7,118.3h-6.6c0-2.8-3.9-5.3-8.4-5.3s-8.4,2.5-8.4,5.3h-6.6c0-6.7,6.6-11.9,15-11.9
				S212.7,111.6,212.7,118.3z"/>
		</g>
	</g>
</g>
<g>
	
		<ellipse transform="matrix(0.9997 -2.251899e-02 2.251899e-02 0.9997 -1.9212 3.1813)" class="st8" cx="140.3" cy="86.9" rx="3.3" ry="3.3"/>
	
		<ellipse transform="matrix(0.9997 -2.251899e-02 2.251899e-02 0.9997 -1.7935 3.9276)" class="st8" cx="173.5" cy="81.6" rx="4" ry="4"/>
	<path class="st8" d="M138.3,84.2c11.2-16.3,33.2-12.4,38-5.5c-2.1,4.5-5.1,4.8-5.7,5.7c-4.2-5.1-16.1-9-27.9,4.7"/>
</g>
<g>
	
		<ellipse transform="matrix(2.251899e-02 -0.9997 0.9997 2.251899e-02 159.911 344.8017)" class="st8" cx="256.3" cy="90.6" rx="3.3" ry="3.3"/>
	
		<ellipse transform="matrix(2.251899e-02 -0.9997 0.9997 2.251899e-02 132.8381 306.4658)" class="st8" cx="223.1" cy="85.3" rx="4" ry="4"/>
	<path class="st8" d="M258.3,88c-11.2-16.3-33.2-12.4-38-5.5c2.1,4.5,5.1,4.8,5.7,5.7c4.2-5.1,16.1-9,27.9,4.7"/>
</g>
<g>
	<circle class="st8" cx="152.3" cy="123.9" r="1.8"/>
	<circle class="st8" cx="167.5" cy="123.9" r="1.8"/>
	<g>
		<path class="st8" d="M150.4,123.9h3.7c0-5.2,11.5-5.2,11.5,0h3.7C169.3,114.6,150.4,114.8,150.4,123.9z"/>
	</g>
</g>
<g>
	<circle class="st8" cx="227.8" cy="123.9" r="1.8"/>
	<circle class="st8" cx="243" cy="123.9" r="1.8"/>
	<g>
		<path class="st8" d="M226,123.9h3.7c0-5.2,11.5-5.2,11.5,0h3.7C244.8,114.6,226,114.8,226,123.9z"/>
	</g>
</g>
<path class="st8" d="M207.8,175.9c0,3.6-4.6,6.4-10.4,6.4s-10.4-2.9-10.4-6.4"/>
<g>
	<path class="st0" d="M115.6,440.5c-10.2,1.4-15.3-5.9-17.4-9.5l-1-1.7c0,0-1.4-1-3.3-2.7c-0.2,0-0.3,0-0.5,0c0,0,3,17.6,5.1,23.1
		c2.3,6.1,8.7,33.9,10.7,40.7c2.3,7.9,2.2,14.1-6.9,16.2c-9.2,2.1-13.6-4.3-14.6-11.2c-1.4-9.5-8.2-41.2-8.2-41.2
		c0,4.3-0.9,8.4-7.8,9.3c-7.9,1-10-1.7-11.4-6.4c-2.3,7.3-7.5,8-10.8,8c-5.7-0.1-9.4-9.4-9.4-9.4c-0.5,7.7-4.1,7.2-8.9,7.6
		c-2.9,0.2-6.9-1.9-9.2-6.6c-2.3-4.7-6.8-7.5-10.2-47.3c-0.9-10.5,6.8-17.5,19.6-22.9c8.6-3.6,20.4-8.9,29.4-11.7
		c0.8-0.3,1.6-0.4,2.4-0.6c5-1.4,10.6-0.4,14.8,3.1l26.3,22.7c0,0,0.1,0.1,0.1,0.1c1.7,1,3.1,2.6,3.8,4.8
		c2.3,6.7,5.9,14.9,12.8,23.9C123.4,432,122.6,439.6,115.6,440.5"/>
	<g>
		<path class="st2" d="M34.3,462.9c8.8-0.7,5.2-13.7,4.7-7.7C38.4,461.4,34.3,462.9,34.3,462.9"/>
		<path class="st2" d="M52,464.8c11.9-1.5,7.7-14.2,6.7-8.4C57.7,462.4,52,464.8,52,464.8"/>
		<path class="st2" d="M71.9,463.4c11.9-1.5,7.5-15.1,6.5-9.2C77.4,460.1,71.9,463.4,71.9,463.4"/>
		<path class="st2" d="M93.4,426.5c0,0,9.8,27.5,16.4,63.7c1,5.3,2.8,13.4-6.4,15.9C113.1,500.5,100.1,466,93.4,426.5"/>
		<path class="st2" d="M121.1,437.2c0-1.7-0.4-3.4-1.3-4.5c-6.9-9-10.6-17.2-12.8-23.9c-0.8-2.2-2.1-3.9-3.8-4.8
			c0,0-0.1-0.1-0.1-0.1l-26.3-22.7c-4.1-3.6-9.8-4.6-14.8-3.1c-0.8,0.1-1.6,0.3-2.4,0.6c-9,2.8-20.7,8.1-29.4,11.7
			c-9.1,3.8-15.6,8.5-18.3,14.7c1.2-8.2,8.5-14,19.5-18.7c8.6-3.6,20.4-8.9,29.4-11.7c0.8-0.3,1.6-0.4,2.4-0.6
			c5-1.4,10.6-0.4,14.8,3.1l26.3,22.7c0,0,0.1,0.1,0.1,0.1c1.7,1,3.1,2.6,3.8,4.8c2.3,6.7,5.9,14.9,12.8,23.9
			C122.5,430.7,122.8,434.4,121.1,437.2"/>
		<path class="st2" d="M93.9,416.4c0,0,5.2,9,7.4,13.2c1.9,3.6,7,9.6,13.4,10.9c-9.7,0.9-14.6-6-16.6-9.6l-1-1.7
			c0,0-1.8-0.7-3.8-2.7C93.4,426.5,95.5,421.4,93.9,416.4"/>
		<path class="st2" d="M77.7,451.8c-0.8-1.2-1.6-2-2.5-2.9c-0.9-0.9-1.9-1.7-2.8-2.8c-0.9-1.1-1.7-2.4-2-3.8
			c-0.4-1.4-0.3-2.9,0.3-4.2c0.4,1.3,0.8,2.5,1.4,3.6c0.6,1.1,1.3,2,2.1,3c0.8,1,1.7,2,2.5,3.2C77.3,449,77.9,450.4,77.7,451.8"/>
		<path class="st2" d="M59.3,452.2c-0.8-1.2-1.6-2-2.5-2.9c-0.9-0.9-1.9-1.7-2.8-2.8c-0.9-1.1-1.7-2.4-2-3.8
			c-0.4-1.4-0.3-2.9,0.3-4.2c0.4,1.3,0.8,2.5,1.4,3.6c0.6,1.1,1.3,2,2.1,3c0.8,1,1.7,2,2.5,3.2C58.9,449.3,59.4,450.8,59.3,452.2"/>
		<path class="st2" d="M38.8,451.3c-0.8-1.2-1.6-2-2.5-2.9c-0.9-0.9-1.9-1.7-2.8-2.8c-0.9-1.1-1.7-2.4-2-3.8
			c-0.4-1.4-0.3-2.9,0.3-4.2c0.4,1.3,0.8,2.5,1.4,3.6c0.6,1.1,1.3,2,2.1,3c0.8,1,1.7,2,2.5,3.2C38.4,448.4,39,449.9,38.8,451.3"/>
	</g>
</g>
<g>
	<path class="st0" d="M291.1,440.5c-7-0.9-7.9-8.5-5.3-11.8c6.9-9,10.6-17.2,12.8-23.9c0.8-2.2,2.1-3.9,3.8-4.8c0,0,0.1-0.1,0.1-0.1
		l26.3-22.7c4.1-3.6,9.8-4.6,14.8-3.1c0.8,0.1,1.6,0.3,2.4,0.6c9,2.8,20.7,8.1,29.4,11.7c12.8,5.4,20.5,12.4,19.6,22.9
		c-3.4,39.8-7.9,42.6-10.2,47.3c-2.3,4.7-6.3,6.8-9.2,6.6c-4.8-0.4-8.4,0.1-8.9-7.6c-0.1,0-3.8,9.3-9.4,9.4c-3.4,0.1-8.6-0.6-10.8-8
		c-1.4,4.7-3.6,7.3-11.4,6.4c-6.9-0.8-7.8-5-7.8-9.3c0,0-6.8,31.7-8.2,41.2c-1,6.9-5.4,13.4-14.6,11.2c-9.1-2.1-9.2-8.3-6.9-16.2
		c1.9-6.7,8.3-34.6,10.7-40.7c2.1-5.5,5.1-23.1,5.1-23.1c-0.2,0-0.4,0-0.5,0c-1.9,1.7-3.3,2.7-3.3,2.7l-1,1.7
		C306.4,434.6,301.2,441.9,291.1,440.5"/>
	<g>
		<path class="st2" d="M372.3,462.9c0,0-4.2-1.5-4.7-7.7C367.2,449.2,363.5,462.2,372.3,462.9"/>
		<path class="st2" d="M354.6,464.8c0,0-5.7-2.4-6.7-8.4C346.9,450.6,342.7,463.3,354.6,464.8"/>
		<path class="st2" d="M334.7,463.4c0,0-5.5-3.3-6.5-9.2C327.2,448.3,322.8,461.9,334.7,463.4"/>
		<path class="st2" d="M313.2,426.5c-6.7,39.5-19.7,74-10.1,79.7c-9.2-2.6-7.4-10.6-6.4-15.9C303.5,454,313.2,426.5,313.2,426.5"/>
		<path class="st2" d="M285.5,437.2c-1.7-2.7-1.4-6.4,0.2-8.5c6.9-9,10.6-17.2,12.8-23.9c0.8-2.2,2.1-3.9,3.8-4.8
			c0,0,0.1-0.1,0.1-0.1l26.3-22.7c4.1-3.6,9.8-4.6,14.8-3.1c0.8,0.1,1.6,0.3,2.4,0.6c9,2.8,20.7,8.1,29.4,11.7
			c11,4.6,18.2,10.5,19.5,18.7c-2.7-6.2-9.2-10.8-18.3-14.7c-8.7-3.6-20.4-8.9-29.4-11.7c-0.8-0.3-1.6-0.4-2.4-0.6
			c-5-1.4-10.6-0.4-14.8,3.1l-26.3,22.7c0,0-0.1,0.1-0.1,0.1c-1.7,1-3.1,2.6-3.8,4.8c-2.3,6.7-5.9,14.9-12.8,23.9
			C286,433.8,285.5,435.5,285.5,437.2"/>
		<path class="st2" d="M312.7,416.4c-1.5,5,0.6,10.1,0.6,10.1c-2,2-3.8,2.7-3.8,2.7l-1,1.7c-2,3.6-7,10.5-16.6,9.6
			c6.5-1.3,11.6-7.4,13.4-10.9C307.5,425.4,312.7,416.4,312.7,416.4"/>
		<path class="st2" d="M328.9,451.8c-0.2-1.4,0.4-2.9,1.2-4.1c0.7-1.2,1.7-2.2,2.5-3.2c0.8-0.9,1.5-1.9,2.1-3c0.6-1.1,1-2.3,1.4-3.6
			c0.5,1.3,0.6,2.8,0.3,4.2c-0.3,1.4-1.1,2.7-2,3.8c-0.9,1.1-1.9,1.9-2.8,2.8C330.5,449.8,329.7,450.7,328.9,451.8"/>
		<path class="st2" d="M347.3,452.2c-0.2-1.4,0.4-2.9,1.2-4.1c0.7-1.2,1.7-2.2,2.5-3.2c0.8-0.9,1.5-1.9,2.1-3c0.6-1.1,1-2.3,1.4-3.6
			c0.5,1.3,0.6,2.8,0.3,4.2c-0.3,1.4-1.1,2.7-2,3.8c-0.9,1.1-1.9,1.9-2.8,2.8C349,450.2,348.1,451,347.3,452.2"/>
		<path class="st2" d="M367.8,451.3c-0.2-1.4,0.4-2.9,1.2-4.1c0.7-1.2,1.7-2.2,2.5-3.2c0.8-0.9,1.5-1.9,2.1-3c0.6-1.1,1-2.3,1.4-3.6
			c0.5,1.3,0.6,2.8,0.3,4.2c-0.3,1.4-1.1,2.7-2,3.8c-0.9,1.1-1.9,1.9-2.8,2.8C369.4,449.2,368.6,450.1,367.8,451.3"/>
	</g>
</g>
</svg>
